<svg xmlns="http://www.w3.org/2000/svg" viewBox="0 0 600 400"><defs><style>.cls-1,.cls-2{fill:#fff;}.cls-2{opacity:0;}.cls-3{fill:#fff0da;}.cls-4{fill:#839ff2;}.cls-5{fill:#3e579e;}.cls-6{fill:#486bd4;}.cls-7{fill:#7a9cff;}.cls-8{fill:#ffcf80;}.cls-9{fill:#f56c7c;}.cls-10{fill:#4973ed;}.cls-11{fill:#c43d4d;}.cls-12{fill:#faebd6;}.cls-13{fill:#ffc057;}.cls-14{fill:#97dade;}.cls-15{fill:#f7a27e;}.cls-16{fill:#a65137;}.cls-17{fill:#694d26;}.cls-18{fill:#da374a;}.cls-19{fill:#523c1e;}.cls-20{fill:#d48972;}.cls-21{fill:#294aab;}.cls-22{fill:#b89e79;}.cls-23{fill:#ffc194;}.cls-24{fill:#d4784c;}.cls-25{fill:#5dd2d9;}.cls-26{fill:#2c6a6e;}.cls-27{fill:#f3ab33;}.cls-28{fill:#bf381d;}.cls-29{fill:#d48c15;}.cls-30{fill:#b56e51;}.cls-31{fill:#a65638;}.cls-32{fill:#291a1b;}.cls-33{fill:#6b2f1a;}.cls-34{fill:#b6ecf0;}</style></defs><title>bg_portfolio</title><g id="_00" data-name="00"><rect class="cls-1" width="600" height="400"/><rect class="cls-2" width="600" height="400"/></g><g id="_0" data-name="0"><path class="cls-3" d="M58.32,155.39c-4.4,5.07-9.83,9.13-14.81,13.62-7.24,6.54-18.67,14.44-19.45,25.13-.48,6.47,3.9,12.65,9.69,15.55,9.68,4.83,24.24,2.22,32.46-4.59a74.74,74.74,0,0,0,26.28-49c.58-5.47.52-11.17-1.5-16.29s-6.31-9.61-11.72-10.68C64.44,126.15,65.25,147.38,58.32,155.39Z"/><path class="cls-3" d="M45.86,129.94a8.47,8.47,0,0,0-8-7.89c-7.8-.29-21.69,16.41-13.32,22.55C31.22,149.48,46.35,138.45,45.86,129.94Z"/><path class="cls-3" d="M538.86,30.63a7,7,0,0,0-5.52,7.61c1,6.39,17.42,15.33,21.38,7.64C557.87,39.77,546.08,29,538.86,30.63Z"/><path class="cls-3" d="M561.77,187.88a3.41,3.41,0,0,0-2.71,3.72c.47,3.13,8.53,7.51,10.47,3.74C571.07,192.35,565.3,187.09,561.77,187.88Z"/><path class="cls-3" d="M565.6,258.8l.65-.11c22.69-4.32-5.8-32.37-12.77-38.31-11.49-9.78-30.26-22-45.82-14.42-6.11,3-10.44,10-8.92,16.69,2.81,12.23,15.46,19.61,26,24.48C535,251.88,554,260.55,565.6,258.8Z"/><path class="cls-3" d="M493,68.21c3.33,0,6.86-.76,9.17-3.15,2.72-2.83,3.09-7.34,1.78-11s-4-6.72-6.93-9.38c-8.08-7.44-18.91-13-29.76-11.3a11.42,11.42,0,0,0-6.67,3c-4.38,4.65-1.29,12.38,3,16C469,56.78,474.5,61.83,480.76,65A28.37,28.37,0,0,0,493,68.21Z"/><path class="cls-3" d="M134.21,378.44c11.51-4.93,24.75-13.09,29.87-25.05,2-4.69,2.55-10.36,0-14.77-4.66-7.95-15.58-8-23.58-6.88-17,2.4-32.69,9.31-41.81,24.55C92.41,366.74,94,378.35,106.8,382a33.47,33.47,0,0,0,14.37.45A57.08,57.08,0,0,0,134.21,378.44Z"/></g><g id="bg"><rect class="cls-4" x="58.42" y="52.88" width="485.84" height="308.74" rx="12.21"/><rect class="cls-5" x="76.75" y="70.94" width="449.31" height="273.86" rx="12.43"/><path class="cls-6" d="M89.08,70.94h20.86a0,0,0,0,1,0,0V344.8a0,0,0,0,1,0,0H76.75a0,0,0,0,1,0,0V83.27A12.33,12.33,0,0,1,89.08,70.94Z"/><rect class="cls-6" x="109.94" y="97.77" width="416.12" height="0.89"/><rect class="cls-6" x="239.07" y="98.22" width="0.85" height="246.59"/><rect class="cls-6" x="388.44" y="98.22" width="0.85" height="246.59"/><rect class="cls-7" x="131.14" y="81.8" width="80.71" height="6.67" rx="3.34"/><rect class="cls-7" x="268.07" y="81.8" width="91.62" height="6.67" rx="3.34"/><rect class="cls-7" x="415.88" y="81.8" width="80.71" height="6.67" rx="3.34"/><path class="cls-8" d="M87.48,85.14a2.26,2.26,0,1,1-2.26-2.26A2.26,2.26,0,0,1,87.48,85.14Z"/><path class="cls-4" d="M95.6,85.14a2.26,2.26,0,1,1-2.26-2.26A2.26,2.26,0,0,1,95.6,85.14Z"/><path class="cls-9" d="M103.72,85.14a2.26,2.26,0,1,1-2.26-2.26A2.26,2.26,0,0,1,103.72,85.14Z"/><path class="cls-7" d="M104.64,112.7H83a2.05,2.05,0,0,1-2.05-2h0a2.05,2.05,0,0,1,2.05-2h21.63a2.05,2.05,0,0,1,2,2h0A2,2,0,0,1,104.64,112.7Z"/><path class="cls-7" d="M104.64,120.85H83a2.05,2.05,0,0,1-2.05-2h0a2.05,2.05,0,0,1,2.05-2h21.63a2.05,2.05,0,0,1,2,2h0A2,2,0,0,1,104.64,120.85Z"/><path class="cls-7" d="M104.64,150.85H83a2,2,0,0,1-2.05-2h0a2,2,0,0,1,2.05-2h21.63a2,2,0,0,1,2,2h0A2,2,0,0,1,104.64,150.85Z"/><path class="cls-7" d="M104.64,190.49H83a2,2,0,0,1-2.05-2h0a2.05,2.05,0,0,1,2.05-2h21.63a2,2,0,0,1,2,2h0A2,2,0,0,1,104.64,190.49Z"/><path class="cls-7" d="M104.64,213.33H83A2.05,2.05,0,0,1,81,211.28h0a2.05,2.05,0,0,1,2.05-2h21.63a2,2,0,0,1,2,2h0A2.05,2.05,0,0,1,104.64,213.33Z"/><path class="cls-7" d="M104.64,205.56H83A2.05,2.05,0,0,1,81,203.51h0a2.05,2.05,0,0,1,2.05-2h21.63a2,2,0,0,1,2,2h0A2.05,2.05,0,0,1,104.64,205.56Z"/></g><g id="task"><path class="cls-10" d="M162.47,142.5l-38.61-3.2c5.73-3.35,4.72-30.69,4.72-30.69h33.89Z"/><path class="cls-11" d="M217.43,175.08s-26.29,6-40.89.58V141.77h33.89C212.44,162.21,214.51,168.7,217.43,175.08Z"/><rect class="cls-1" x="137.94" y="212.51" width="33.89" height="33.89"/><path class="cls-12" d="M206.67,298S174,296.29,171,289.8l6.61-29.91,33.59,4.5Z"/><rect class="cls-13" x="115.43" y="276.77" width="33.89" height="33.89" transform="translate(-27.44 13.98) rotate(-5.48)"/><rect class="cls-14" x="293.37" y="138.79" width="33.89" height="33.89" transform="translate(-13.45 30.34) rotate(-5.48)"/><rect class="cls-12" x="266.87" y="122.36" width="33.89" height="33.89" transform="translate(20.99 -36.43) rotate(7.63)"/><rect class="cls-14" x="310.56" y="298.42" width="33.89" height="33.89"/><path class="cls-14" d="M462.33,319.72s-15.09,9.29-40.2-.59l2.08-31.25L458,290S456.52,316,462.33,319.72Z"/><rect class="cls-12" x="401.57" y="209.05" width="33.89" height="33.89" transform="translate(-12.11 24.02) rotate(-3.24)"/><rect class="cls-13" x="479.01" y="210.93" width="33.89" height="33.89"/><rect class="cls-1" x="450.38" y="161.22" width="33.89" height="33.89"/><path class="cls-14" d="M440.08,146.36c-16.55,7.91-41.17,4.42-41.17,4.42,4.82-7.79,2.66-36.35,2.66-36.35h33.89Z"/><rect class="cls-13" x="337.49" y="116.89" width="33.89" height="33.89" transform="translate(-11.16 34.45) rotate(-5.48)"/><rect class="cls-11" x="475.19" y="134.92" width="33.89" height="33.89" transform="translate(-12.25 47.69) rotate(-5.48)"/><polygon class="cls-1" points="499.05 160.08 492.73 157.64 487.14 161.46 487.5 154.7 482.14 150.56 488.69 148.82 490.96 142.44 494.64 148.13 501.41 148.32 497.14 153.58 499.05 160.08"/><path class="cls-5" d="M273.45,127.75c7.95,1.73,16.1,2.39,24.06,4.13.41.09.59-.56.17-.65-7.95-1.73-16.1-2.39-24.06-4.12-.41-.09-.59.55-.17.64Z"/><path class="cls-5" d="M271.91,131.2c8,1.73,16.1,2.39,24.06,4.12.42.09.59-.55.17-.64-7.95-1.73-16.1-2.39-24.05-4.12-.42-.09-.6.55-.18.64Z"/><path class="cls-1" d="M376.7,217.8c-4.35,5.49-36.34-2.22-36.34-2.22l4.5-33.59,33.59,4.5Z"/><path class="cls-5" d="M351.13,190.53l19.94,2.86c.42.06.6-.58.18-.64l-19.94-2.86c-.42-.06-.6.58-.18.64Z"/><path class="cls-5" d="M350.23,195a32.75,32.75,0,0,0,6.6.89c.43,0,.43-.65,0-.66a32.41,32.41,0,0,1-6.42-.87c-.42-.1-.59.54-.18.64Z"/><path class="cls-5" d="M349.32,204.13a131,131,0,0,0,20.53,2.1.34.34,0,0,0,0-.67,128.68,128.68,0,0,1-20.35-2.07c-.42-.08-.6.57-.18.64Z"/><path class="cls-5" d="M350.31,207.91l18.24,2c.42,0,.42-.62,0-.67l-18.24-1.95c-.43,0-.42.62,0,.67Z"/><rect class="cls-14" x="167.06" y="194.87" width="33.89" height="33.89"/><path class="cls-5" d="M172.07,202.07l23.18.5c.36,0,.46-.59.08-.65l-.57-.09c-.42-.07-.6.57-.18.64l.58.09.09-.65-23.18-.51a.34.34,0,0,0,0,.67Z"/><path class="cls-5" d="M172.84,206.59l22.6.28a.34.34,0,0,0,.16-.62l-.37-.28c-.35-.25-.68.33-.34.58l.38.27.17-.62-22.6-.28a.34.34,0,0,0,0,.67Z"/><path class="cls-5" d="M172.58,209.93c4.28.19,8.56.2,12.84,0,.43,0,.43-.68,0-.66q-6.42.28-12.84,0c-.43,0-.42.64,0,.66Z"/><path class="cls-5" d="M173.23,220.93a166.65,166.65,0,0,0,21.31.79.33.33,0,0,0,.17-.62l-.38-.24c-.37-.22-.7.35-.34.58l.39.24.16-.62a168.5,168.5,0,0,1-21.31-.79c-.43-.05-.42.62,0,.66Z"/><path class="cls-5" d="M407,121.33a199.66,199.66,0,0,0,23.44-1.52c.42,0,.43-.72,0-.66A199.65,199.65,0,0,1,407,120.66a.34.34,0,0,0,0,.67Z"/><path class="cls-5" d="M407.43,125.31a104.19,104.19,0,0,0,12.62,0c.42,0,.43-.69,0-.67a102.19,102.19,0,0,1-12.62,0c-.43,0-.43.64,0,.67Z"/><path class="cls-5" d="M407.32,131.21a129.79,129.79,0,0,0,22.9-.5c.42,0,.42-.71,0-.66a129.78,129.78,0,0,1-22.9.49c-.43,0-.43.64,0,.67Z"/><path class="cls-5" d="M407.87,145.44a202.12,202.12,0,0,0,24.34-1.66c.42-.06.43-.72,0-.67a202.13,202.13,0,0,1-24.34,1.67.33.33,0,0,0,0,.66Z"/><rect class="cls-11" x="281.97" y="283.04" width="33.89" height="33.89" transform="translate(-27.28 29.91) rotate(-5.48)"/><path class="cls-1" d="M285.4,291.24l25.43-1.65c.42,0,.42-.7,0-.67l-25.43,1.66c-.43,0-.43.69,0,.66Z"/><path class="cls-1" d="M286.71,294l17.69-1.61c.42,0,.42-.7,0-.66l-17.69,1.6c-.42,0-.42.71,0,.67Z"/><path class="cls-1" d="M286.7,298.87a158.29,158.29,0,0,0,18-.78c.42,0,.43-.71,0-.67a158.3,158.3,0,0,1-18,.79.33.33,0,0,0,0,.66Z"/><path class="cls-1" d="M287.76,311.55l25.17-1.87c.42,0,.42-.7,0-.66l-25.17,1.87c-.42,0-.43.7,0,.66Z"/><path class="cls-1" d="M289.07,314.38l9.83-.79c.42,0,.43-.7,0-.67l-9.83.79c-.43,0-.43.7,0,.67Z"/><path class="cls-1" d="M139.62,117.14q8,.66,16.06.64v-.67l-.49,0c-.42,0-.42.71,0,.67l.49,0c.42,0,.44-.67,0-.67q-8,0-16.06-.63c-.43,0-.42.63,0,.66Z"/><path class="cls-1" d="M140,120.94a103.13,103.13,0,0,0,15.31.68V121l-.51,0c-.42,0-.43.68,0,.66l.51,0c.43,0,.43-.68,0-.66a104.5,104.5,0,0,1-15.31-.68c-.42,0-.42.61,0,.66Z"/><path class="cls-1" d="M139.92,131.78a142.1,142.1,0,0,0,15.27,1.31.34.34,0,0,0,0-.67,138.53,138.53,0,0,1-15.09-1.28c-.42-.06-.6.58-.18.64Z"/><path class="cls-1" d="M139.68,135.25a95.79,95.79,0,0,0,16.41.85.34.34,0,0,0,0-.67,94.69,94.69,0,0,1-16.23-.82c-.42-.06-.6.58-.18.64Z"/><rect class="cls-1" x="131.36" y="115.07" width="5.84" height="5.84"/><rect class="cls-1" x="131.36" y="129.42" width="5.84" height="5.84" transform="translate(8.28 -7.9) rotate(3.48)"/><path class="cls-10" d="M132.33,117.7l1.38,1.41c.19.2.41.51.7.57a.59.59,0,0,0,.61-.36c.37-.66.66-1.36,1-2,.09-.2.18-.41.28-.61s-.3-.55-.44-.25l-.61,1.33-.44,1-.2.39c-.06.1-.07.12-.16,0s-.21-.21-.31-.31l-1.42-1.46a.25.25,0,0,0-.36.35Z"/><path class="cls-10" d="M132.11,131.78l1.22,1.61c.16.21.32.5.57.61a.56.56,0,0,0,.68-.25c.46-.6.83-1.28,1.23-1.92l.36-.6c.17-.27-.26-.52-.43-.25l-.76,1.24-.57.9c-.08.12-.15.25-.24.36s-.06.09-.13,0a4.08,4.08,0,0,1-.25-.33l-1.25-1.65a.27.27,0,0,0-.34-.09.26.26,0,0,0-.09.35Z"/><path class="cls-1" d="M342.16,126.32l21.54-2.22c.42,0,.42-.71,0-.66l-21.54,2.21c-.43,0-.43.71,0,.67Z"/><path class="cls-1" d="M342,130.2q11.73-1.37,23.52-2.08l-.09-.65-.61.21c-.4.14-.23.79.17.64l.62-.21c.33-.12.31-.68-.09-.65q-11.79.71-23.52,2.07c-.42.05-.43.72,0,.67Z"/><path class="cls-1" d="M343.09,134.13a148,148,0,0,0,19.61-1.44c.42-.06.24-.7-.18-.64a148.63,148.63,0,0,1-19.43,1.42.33.33,0,0,0,0,.66Z"/><path class="cls-1" d="M345.81,140.51l14.94-1.38c.42,0,.42-.71,0-.67l-14.94,1.38c-.43,0-.43.71,0,.67Z"/><path class="cls-1" d="M429.81,298.87c7.84,1,15.78.69,23.66,1.23.43,0,.42-.64,0-.66-7.88-.55-15.82-.27-23.66-1.23-.43,0-.42.61,0,.66Z"/><path class="cls-1" d="M429.84,304.9l23.63,1.32c.43,0,.43-.64,0-.67l-23.63-1.32c-.43,0-.43.64,0,.67Z"/><path class="cls-1" d="M113.22,287.75l28.08-3.67c.42-.05.42-.72,0-.66l-28.08,3.66c-.41.06-.42.72,0,.67Z"/><path class="cls-1" d="M114.67,292.18,139.85,289c.42-.05.43-.72,0-.66l-25.18,3.22c-.42.06-.42.72,0,.67Z"/><path class="cls-1" d="M118.57,306.25l24.76-2.38c.42,0,.42-.7,0-.66l-24.76,2.37c-.43,0-.43.71,0,.67Z"/><rect class="cls-10" x="190.16" y="132.8" width="4.54" height="11.98" transform="translate(-16.76 26.84) rotate(-7.65)"/><rect class="cls-10" x="491.41" y="203.25" width="4.54" height="11.98"/><rect class="cls-10" x="413.61" y="201.16" width="4.54" height="11.98"/><rect class="cls-10" x="325.7" y="289.56" width="4.54" height="11.98"/><rect class="cls-10" x="349.49" y="107.91" width="4.54" height="11.98" transform="translate(-16.37 79.4) rotate(-12.59)"/><rect class="cls-10" x="194.71" y="253.79" width="4.54" height="11.98" transform="translate(96.87 -50.49) rotate(19.29)"/></g><g id="_1" data-name="1"><path class="cls-15" d="M540.63,320.92l-41,8.09L496,315.94l-3.44-12.1a20.69,20.69,0,0,0-12.58-13.7,23.81,23.81,0,0,1-15-17.91l-4.57-24.72a7.28,7.28,0,0,1,5.62-8.43l9.52-2,2.07,5.53,38.64,10.71-2.47-13.6,3.73-.67a7.49,7.49,0,0,1,8.71,6l.14.74a152.54,152.54,0,0,1,2.35,21.84l.28,12.84a60.14,60.14,0,0,0,3.89,20l5.46,14.43Z"/><path class="cls-15" d="M488.85,235.33l-17.58,14.56L464,239.82l22.45-16.27a3.08,3.08,0,0,1,4.64,1.29l.21.48A8.59,8.59,0,0,1,488.85,235.33Z"/><path class="cls-15" d="M499.85,251.47l-16,6L463.22,191.2a7,7,0,0,1,1-6.11h0a2.94,2.94,0,0,1,3-1.17l.65.15a5.81,5.81,0,0,1,4.05,3.35Z"/><path class="cls-16" d="M540.63,320.92l-41,8.09L496,315.94c5.12,7.38,33.53-3.44,40.29-6.69Z"/><path class="cls-17" d="M600,361.81V400H495.39c-.05-.34-.1-.67-.14-1h0c-.14-1-.28-2-.41-3,0-.32-.09-.64-.13-1v0c-.08-.67-.17-1.33-.25-2q-.36-2.94-.66-5.74c-.69-6.53-1.14-12.5-1.4-17.94,0-1.16-.1-2.29-.13-3.4l0-1c0-.59,0-1.18-.05-1.75-.14-6.82,0-12.69.4-17.68,1-13.53,3.44-20.61,4.73-22.66a111.24,111.24,0,0,1,26-13.26,118.58,118.58,0,0,1,23.56-6.16C564.3,308.85,584.08,333.27,600,361.81Z"/><path class="cls-18" d="M470,186.34c1.15,3.36,2,4.57-2.38,5.74-1.63.44-2.81-1.34-3.55-4.22s0-5.55,1.63-6S469,183.53,470,186.34Z"/><path class="cls-16" d="M474.35,215l-.12,0a.44.44,0,0,1-.31-.55c.2-.72,3.65-2.32,6.29-2.22a.45.45,0,0,1,.43.46.47.47,0,0,1-.46.43,10.15,10.15,0,0,0-5.44,1.67A.45.45,0,0,1,474.35,215Z"/><path class="cls-16" d="M476.77,217.25a.47.47,0,0,1-.34-.16.45.45,0,0,1,.06-.63c.08-.07,2.08-1.73,3.78-1.54a.45.45,0,0,1,.4.49.48.48,0,0,1-.49.39c-1.11-.12-2.63.93-3.12,1.34A.48.48,0,0,1,476.77,217.25Z"/><path class="cls-15" d="M515.75,260.83l-13.58,6.94-20.44-45.4,1.48-.46A10,10,0,0,1,493.84,225l7,8.27a31.85,31.85,0,0,1,4.25,6.41Z"/><path class="cls-15" d="M506.49,234.08H508a10.44,10.44,0,0,1,10.44,10.44v17.93a0,0,0,0,1,0,0h-12a0,0,0,0,1,0,0V234.08A0,0,0,0,1,506.49,234.08Z" transform="translate(-49.58 156.82) rotate(-16.61)"/><path class="cls-16" d="M482.63,265.87c-2.53,2.4-7.13,1-6.12-3.19s2.86-13.08,2.67-14C480.26,254.33,481.52,260.73,482.63,265.87Z"/><path class="cls-16" d="M483,268.2a.44.44,0,0,1-.43-.35c-.14-.61-.28-1.24-.41-1.89-.95-4.38-2.11-10.18-3.45-17.24.2-8.23-7.2-28.72-7.28-28.92a.45.45,0,0,1,.27-.57.44.44,0,0,1,.57.26c.3.85,7.54,20.86,7.32,29.16,1.33,6.95,2.49,12.75,3.43,17.12.14.65.28,1.28.41,1.89a.44.44,0,0,1-.33.53Z"/><path class="cls-16" d="M497.7,252.67a.44.44,0,0,1-.44-.4C496.72,245.5,485.63,220,485,219a.42.42,0,0,1,.05-.61.47.47,0,0,1,.64.05c.73.83,11.9,27,12.43,33.73a.44.44,0,0,1-.41.47Z"/><path class="cls-16" d="M508.76,250.14a.44.44,0,0,1-.44-.38c-1.41-9.72-6.69-14.89-6.74-14.94a.44.44,0,0,1,.61-.64c.23.22,5.55,5.42,7,15.46a.45.45,0,0,1-.38.5Z"/><path class="cls-16" d="M518.33,248.48a.44.44,0,0,1-.44-.39c-1-7.39-4.69-9.36-4.73-9.37a.45.45,0,0,1-.19-.6.44.44,0,0,1,.59-.2c.17.09,4.11,2.15,5.21,10.05a.45.45,0,0,1-.38.5Z"/><path class="cls-16" d="M479,247.88a.5.5,0,0,1-.32-.13c-2.54-2.62-6.94-3.18-9.31-3.48a6.54,6.54,0,0,1-1.6-.29.45.45,0,1,1,.37-.81,8.14,8.14,0,0,0,1.34.22c2.48.32,7.08.9,9.84,3.74a.43.43,0,0,1,0,.62A.42.42,0,0,1,479,247.88Z"/><path class="cls-19" d="M513.54,343.89A6.74,6.74,0,0,0,512,345l0,0a22.64,22.64,0,0,0-3,3.26c-7.05,9.22-14.24,27.38-13.25,50.7,0,.34,0,.68.06,1h-.89c0-.34-.05-.67-.06-1-.06-1.36-.09-2.69-.09-4v0c-.06-20.39,6-36.51,12.38-45.66.39-.55.77-1.07,1.15-1.57a23.28,23.28,0,0,1,3.12-3.42.27.27,0,0,1,.12-.1,7.44,7.44,0,0,1,1.7-1.13.44.44,0,1,1,.36.81Z"/><path class="cls-19" d="M555,324.22a.44.44,0,0,1-.38-.22c-11.42-18.94-28.25-15-28.42-15a.46.46,0,0,1-.54-.33.44.44,0,0,1,.32-.53c.18,0,17.63-4.13,29.4,15.4a.44.44,0,0,1-.15.61A.46.46,0,0,1,555,324.22Z"/><path class="cls-19" d="M508.59,348c-6.22,8.13-14.39,26.3-13.34,51-3.31-23.81-3.56-41.29-2.66-53.52.13,2.69,1.12,6,5.11,6.93S505.91,350.52,508.59,348Z"/></g><g id="_2" data-name="2"><path class="cls-20" d="M252.45,209l21.65,7.32a10,10,0,0,0,10.61-2.72l.17-.19a2.16,2.16,0,0,0-.72-3.43L257.61,198.3Z"/><path class="cls-10" d="M323.72,236.76C306,231.4,274,235.92,274,235.92l-.75-7.59-1.17-11.85-2.44-24.78s28.81-7.47,49.88-2.38Z"/><path class="cls-21" d="M276.55,230.7l-2.53-.56-.79-1.81-1.17-11.85c3.07-1.88,7.95-4.4,12.53-4.83C292,211,276.55,230.7,276.55,230.7Z"/><path class="cls-20" d="M255,216.81c0-.14.62-.18-.07,3,.28.46-1.73,12.79,1.75,18.67,4.43,7.46,9.27-1.75,9.38-1.72,1.52.43,7.21,23.86,8.29,31.05h.55c-.08.62-.17,1.24-.28,1.85h0a31.19,31.19,0,0,1-1.57,5.92l0,.08c-.23.61-.49,1.2-.77,1.78a29.09,29.09,0,0,0-2.76,8.86l-.55,4.1-.54,4.15-.27,2-8.69,65.79-47-10.24,20.31-66.21.31-1a35,35,0,0,0,1.14-15.48v0q-.24-1.6-.63-3.18l-10.34-41.5Z"/><path class="cls-20" d="M237,222.28l16.2,3.69,4.33-15,7.82-9.26-8.81-3.81a6.86,6.86,0,0,0-8.84,3.21Z"/><path class="cls-16" d="M252.58,199.65a.44.44,0,0,1-.28-.1,18.45,18.45,0,0,0-1.64-1.16.44.44,0,0,1-.13-.62.45.45,0,0,1,.61-.13c1.15.75,1.7,1.2,1.73,1.22a.46.46,0,0,1,.06.63A.48.48,0,0,1,252.58,199.65Z"/><path class="cls-16" d="M251.11,200.78a.46.46,0,0,1-.27-.09l-1.73-1.37a.44.44,0,0,1-.07-.62.44.44,0,0,1,.62-.08l1.73,1.37a.44.44,0,0,1,.07.62A.46.46,0,0,1,251.11,200.78Z"/><path class="cls-20" d="M277.26,216.15C273.7,222.06,262,245,256.68,253.84c-.8,1.34-6.22.74-6.22.74-.25,1.38,3.55,1.49,4,3.09,0,0,7.65,12,7.67,12.4s6,3,10.65,4.86c.55-.95,1.07-1.92,1.56-2.92a65.75,65.75,0,0,0,5.82-18.26l3.8-22.46c1.5-7.39,7-19.82-.14-20.19C283.2,211.07,281.36,210.28,277.26,216.15Z"/><path class="cls-16" d="M279.06,242.68a.47.47,0,0,1-.17,0s-3.89-1.59-7.78-2.83a.44.44,0,0,1-.29-.56.45.45,0,0,1,.56-.29c3.92,1.26,7.8,2.84,7.84,2.86a.44.44,0,0,1-.16.85Z"/><path class="cls-16" d="M280.41,239.53a.32.32,0,0,1-.14,0s-4.16-1.41-7.67-2.24a.44.44,0,1,1,.2-.86c3.55.84,7.71,2.25,7.75,2.26a.45.45,0,0,1-.14.87Z"/><path class="cls-20" d="M231.15,225l16.07,2.65,1.17-35.58,8.83-22.1a9.11,9.11,0,0,0-1.34-9l-.2-.26a2.44,2.44,0,0,0-4.12.49l-13.54,29Z"/><path class="cls-20" d="M225.55,228.94l11.95-.24-3-61.82a8.67,8.67,0,0,0-4.75-7.33l-.27-.14a2.34,2.34,0,0,0-3.39,2.06Z"/><path class="cls-20" d="M225.79,235.1,236.54,232l-17.77-55.15a8.11,8.11,0,0,0-6.07-5.46l-.29-.06a2.18,2.18,0,0,0-2.55,2.68Z"/><path class="cls-16" d="M238.8,227.7a.42.42,0,0,1-.31-.13c-1.69-1.7-1.94-5.43-.56-8.31l.58-1.22c2-4.26,6.77-14.24,9.51-18.32,3.23-4.83,7.58-2.58,7.63-2.56a.44.44,0,0,1,.18.6.44.44,0,0,1-.6.18c-.15-.07-3.7-1.88-6.47,2.27s-7.43,14-9.45,18.22l-.58,1.22c-1.34,2.78-.88,6,.39,7.29a.44.44,0,0,1,0,.63A.42.42,0,0,1,238.8,227.7Z"/><path class="cls-16" d="M234.77,227.31a.37.37,0,0,1-.24-.08c-1.94-1.29-2-5.54-1.75-6.94.06-.36.61-3.82,1.32-8.28,1.14-7.11,2.68-16.76,3.26-20.44a11.2,11.2,0,0,1,.91-3l.62-1.33a.44.44,0,0,1,.59-.21.45.45,0,0,1,.21.59l-.62,1.32a10.36,10.36,0,0,0-.84,2.76c-.57,3.69-2.11,13.34-3.25,20.45l-1.32,8.28c-.25,1.63,0,5.16,1.36,6.07a.44.44,0,0,1,.12.61A.43.43,0,0,1,234.77,227.31Z"/><path class="cls-16" d="M227.69,227.56a.46.46,0,0,1-.27-.09c-2.23-1.66-2.36-4.66-2.31-5.88,0-.79.07-1.58.07-2.37l.18-22.26a.45.45,0,0,1,.89,0l-.18,22.27c0,.8,0,1.59-.07,2.39,0,1.08.06,3.73,2,5.14a.44.44,0,0,1-.27.8Z"/><path class="cls-16" d="M225.84,192.46h0a.44.44,0,0,1-.44-.45c0-.31,0-1.06,4.33-1.43a.44.44,0,1,1,.07.88,11.63,11.63,0,0,0-3.53.69A.45.45,0,0,1,225.84,192.46Z"/><path class="cls-16" d="M228.93,189.59h-3.07a.45.45,0,0,1,0-.89h3.07a.45.45,0,0,1,.45.44A.44.44,0,0,1,228.93,189.59Z"/><path class="cls-16" d="M242.47,192.09a.48.48,0,0,1-.31-.13l-.18-.19a6,6,0,0,0-3.58-2.12.45.45,0,0,1-.38-.5.44.44,0,0,1,.5-.38,7,7,0,0,1,4.11,2.39l.16.17a.45.45,0,0,1,0,.63A.44.44,0,0,1,242.47,192.09Z"/><path class="cls-16" d="M241.06,193.49a.55.55,0,0,1-.24-.07,12.4,12.4,0,0,0-2.77-1.42.43.43,0,0,1-.45,0,.44.44,0,0,1-.2-.59.58.58,0,0,1,.37-.31c.64-.17,2.27.74,3.53,1.54a.45.45,0,0,1,.13.61A.44.44,0,0,1,241.06,193.49Z"/><path class="cls-16" d="M216.23,198.87a.44.44,0,0,1-.4-.26.44.44,0,0,1,.22-.59,7.28,7.28,0,0,1,3.48-.68.44.44,0,0,1-.17.87,6.45,6.45,0,0,0-3,.62A.39.39,0,0,1,216.23,198.87Z"/><path class="cls-16" d="M215.58,196.37a.45.45,0,0,1-.42-.29.44.44,0,0,1,.25-.57l2.29-.89a.42.42,0,0,1,.57.25.44.44,0,0,1-.25.57l-2.28.89A.32.32,0,0,1,215.58,196.37Z"/><path class="cls-16" d="M280.72,215.46c-1,3.08-.34,6.07,1.48,6.66s4.12-1.41,5.13-4.49.35-6.06-1.48-6.66S281.73,212.38,280.72,215.46Z"/><path class="cls-16" d="M234.14,269.58A35,35,0,0,1,233,285.06L231.77,289c1.44,2.07,4,.46,4.61-3C237.52,279.48,234.34,270.16,234.14,269.58Z"/><path class="cls-16" d="M250,164.2c-1.23,3-1.4,4.41-.9,4.65,1,.53,3.48-1.27,4.7-4.27s1.4-5.76.4-6.17S251.21,161.2,250,164.2Z"/><path class="cls-16" d="M225.64,164.83c.12,2.72.44,3.85.86,3.87.89,0,2-2.18,1.87-4.89s-.87-4.89-1.69-4.86S225.52,162.12,225.64,164.83Z"/><path class="cls-16" d="M210.12,175.91c.52,1.94.88,2.72,1.12,2.68.5-.07.75-1.79.23-3.73s-1.29-3.41-1.73-3.29S209.61,174,210.12,175.91Z"/><path class="cls-12" d="M227.18,276.31c-.88,3.4-1.76,7.07-2.6,10.81a0,0,0,0,0,0,0l0,.18c-.1.43-.2.87-.29,1.3q0,.12-.06.27c-1.61,7.24-3.09,14.59-4.25,20.57a24.26,24.26,0,0,1,10.17-2.85c11.91-.89,26.5,4.5,36.62,10.19,5.77,3.24,4.89-12.56,7.2-19.34C259.1,290,243.52,280.83,227.18,276.31Z"/><path class="cls-12" d="M227.18,276.31c-1,1.89,8.79,9.15,20.9,15.4s24.86,7.65,25.84,5.76-5.44-7.13-21.71-13.8C239.6,278.5,228.16,274.41,227.18,276.31Z"/><path class="cls-12" d="M272.83,400H185.58a67.29,67.29,0,0,1,1.08-8.89c4.5-24.27,24.9-75.19,36.55-85.32,5.59-4.87,16.53-2.63,22.51-2.94,13.75-.7,26.41,5.17,27.38,28.57,0,.12,0,.24,0,.38,0,.91,0,1.86,0,2.84,0,.52.83,14,.83,23C274,365.89,273.78,387.34,272.83,400Z"/><path class="cls-22" d="M211.72,321.91a.46.46,0,0,1-.22-.06.46.46,0,0,1-.19-.63,33.89,33.89,0,0,1,3.13-4.63l.06,0a32.79,32.79,0,0,1,16-10.4c12.35-3.62,28.28-.32,32.36,1.89,6.05,3.24,8.14,10.58,8.23,10.89a.47.47,0,1,1-.91.25c0-.07-2.07-7.26-7.76-10.32-3.86-2.08-19.74-5.3-31.65-1.81a31.82,31.82,0,0,0-15.61,10.16l-.06.05a33.28,33.28,0,0,0-3,4.41A.45.45,0,0,1,211.72,321.91Z"/><path class="cls-22" d="M217.07,332.26a.32.32,0,0,1-.14,0,.47.47,0,0,1-.31-.59c1.4-4.35,2.79-8.18,4.15-11.39,5.48-13,10.43-14.35,11-14.46a.47.47,0,0,1,.56.37.47.47,0,0,1-.37.55c-.19,0-4.91,1.15-10.29,13.9-1.35,3.19-2.74,7-4.12,11.32A.47.47,0,0,1,217.07,332.26Z"/><path class="cls-22" d="M273.86,364.82h0a.48.48,0,0,1-.43-.51,36.62,36.62,0,0,0,0-6.54,45.94,45.94,0,0,0-8.31-21.83c-.74-1.06-1.34-1.85-1.74-2.37a4.09,4.09,0,0,1-.53-.76.45.45,0,0,1,.26-.6.46.46,0,0,1,.61.25l.4.54c.41.53,1,1.32,1.76,2.4a46.88,46.88,0,0,1,8.48,22.29,37.48,37.48,0,0,1,0,6.7A.47.47,0,0,1,273.86,364.82Z"/><path class="cls-22" d="M266,311a.47.47,0,0,1,0-.94c1.48,0,2.53-1.34,3.16-2.45,1.43-2.53,1.84-6,1.54-6.52a.44.44,0,0,1,0-.64.49.49,0,0,1,.68,0c.77.68.18,3.85-.53,5.79-1.11,3.05-2.82,4.75-4.8,4.79Z"/><path class="cls-22" d="M227.48,288.62h0a.48.48,0,0,1-.44-.49c.29-5.67,1.59-9.35,3.87-10.93a4,4,0,0,1,3.39-.67.47.47,0,1,1-.28.89h0a3.15,3.15,0,0,0-2.59.57c-1.39,1-3.12,3.53-3.45,10.18A.48.48,0,0,1,227.48,288.62Z"/><path class="cls-22" d="M249.63,370.19a45.24,45.24,0,0,1-1.17,7.11,72.51,72.51,0,0,1-9.41,22.7h-1.12a69.15,69.15,0,0,0,8.7-19.35c.37-1.31.67-2.5.92-3.56a45.65,45.65,0,0,0,1.14-6.91.47.47,0,0,1,.47-.46h0A.47.47,0,0,1,249.63,370.19Z"/><path class="cls-22" d="M274,357.65l-.12.08c-.87-10-5.54-18-8.39-22.05,1.56.67,4.18,1.57,5.39.43a7.4,7.4,0,0,0,2.25-4.31c0,.91,0,1.86,0,2.84C273.16,335.16,274,348.67,274,357.65Z"/><path class="cls-22" d="M270.64,306.52s-2.63,5.94-.84,9.6l-3.88-5.21A15.23,15.23,0,0,0,270.64,306.52Z"/><path class="cls-22" d="M214.81,316.9c2-1,4-1.22,5,0a7.06,7.06,0,0,1,1.36,3.57c5-11.72,8.85-13.62,10-13.85h0A34.47,34.47,0,0,0,214.81,316.9Z"/><path class="cls-22" d="M224.18,288.9c-1.61,7.24-4.72,19.87-8,25.9,3-1.68,10.14-7.9,13.87-8.18l3-1.05c-.23,0-3.86.36-7.69-3C222.4,299.93,223.49,292.37,224.18,288.9Z"/><path class="cls-22" d="M248,377.19A70.94,70.94,0,0,1,238.46,400h-9.05c8-5.84,13.85-12,17.22-19.35A35.61,35.61,0,0,0,248,377.19Z"/><path class="cls-16" d="M268.87,290.58l.55-4.1a29.06,29.06,0,0,1,2.76-8.87c.28-.58.54-1.17.77-1.78-.29.69-2.38,5.44-4.85,6.21C266,282.68,268.71,285.79,268.87,290.58Z"/><path class="cls-16" d="M257.09,213.43l-.15,0a.45.45,0,0,1-.27-.57c1.05-3.05-.14-7.79-.74-8.16a.43.43,0,0,1-.26-.56.45.45,0,0,1,.57-.27c1.34.47,2.33,6.19,1.27,9.28A.46.46,0,0,1,257.09,213.43Z"/><path class="cls-16" d="M256.29,256.64h-.13a.46.46,0,0,1-.29-.56c2.21-7.07,10.53-20.92,10.88-21.51a.45.45,0,0,1,.61-.15.44.44,0,0,1,.15.61c-.08.14-8.61,14.34-10.79,21.31A.45.45,0,0,1,256.29,256.64Z"/><path class="cls-1" d="M277.6,198.62a150.49,150.49,0,0,1,33.23-2.37c.42,0,.42-.64,0-.66A151.51,151.51,0,0,0,277.42,198c-.42.08-.24.72.18.65Z"/><path class="cls-1" d="M277.64,203.51a236.22,236.22,0,0,1,32.68-1.07.34.34,0,0,0,0-.67,234.67,234.67,0,0,0-32.68,1.08c-.42,0-.42.71,0,.66Z"/></g><g id="_3" data-name="3"><path class="cls-23" d="M386,259.86l-10.57,6.2-22.65-18.58,6.73-7.73a7.61,7.61,0,0,1,10.43.43L386.34,257A1.84,1.84,0,0,1,386,259.86Z"/><path class="cls-23" d="M425.6,400H379l-5.2-54.18-1.19-12.41-.32-3.34a16.84,16.84,0,0,0-4.58-9.87c-.41-.43-.79-.86-1.14-1.3a24.32,24.32,0,0,1-5.48-16,55.38,55.38,0,0,1,2.38-14.31l5.48-35.15,33.7,3.09a9.29,9.29,0,0,1,8.27,11l-6.12,34.15a.64.64,0,0,0,0,.07l-.92,5.15a32.23,32.23,0,0,0,.6,14l1.83,6.84a.08.08,0,0,0,0,0l3.21,12,6.88,25.68.1.34.28,1.05L417,368Z"/><path class="cls-24" d="M364.08,240.2a.55.55,0,0,1-.25-.07.45.45,0,0,1-.12-.62,22.92,22.92,0,0,1,1.39-1.83.43.43,0,0,1,.62-.07.45.45,0,0,1,.06.63,21.79,21.79,0,0,0-1.33,1.76A.45.45,0,0,1,364.08,240.2Z"/><path class="cls-24" d="M366,240.89a.43.43,0,0,1-.25-.07.44.44,0,0,1-.12-.62l1.35-2a.44.44,0,1,1,.73.49l-1.35,2A.41.41,0,0,1,366,240.89Z"/><path class="cls-24" d="M369.72,262.3c.22.91,7.79,6.55,10.69,13.38,0,0,1.33,9.26.06,15.74C380.47,291.42,369.44,261.16,369.72,262.3Z"/><path class="cls-23" d="M367.47,246.84l-11.29,12.87,1-5.3,5.45,18.07c.71,2.32-.93,8.31-3.26,9s-3.61-2.56-5-6.07L347.16,258a4.88,4.88,0,0,1,.84-5.1l.17-.2,11.3-12.88c4.82-5.13,12.47,1.56,8,7Z"/><path class="cls-25" d="M375.42,262c-2.85,3.26-8.95,5.67-16,7.44-3,.77-6.19,1.41-9.38,2a239.52,239.52,0,0,1-27.41,2.86c4.84-11.33-5.78-47.59-5.78-47.59l46.09-11.11S381.77,254.73,375.42,262Z"/><path class="cls-26" d="M359.41,269.4c-3,.77-6.19,1.41-9.38,2,.08-7.89,4.13-20.38,4.13-20.38Z"/><path class="cls-23" d="M361.6,309c3,14.35,21.3-14.05,21.3-14.05l-19.11-47.28a5.16,5.16,0,0,0-6.26-2.46h0a5.14,5.14,0,0,0-3.36,5.82S359.34,298.08,361.6,309Z"/><path class="cls-24" d="M383.52,302.51h-.11a.46.46,0,0,1-.32-.55c.85-3.26-4.29-16.48-7.12-23,0,0-2.45-6.37-5.1-13.17a.45.45,0,0,1,.83-.33c2.64,6.81,5.09,13.16,5.09,13.16.33.77,8.29,19.2,7.16,23.58A.44.44,0,0,1,383.52,302.51Z"/><path class="cls-24" d="M363.23,270.54a.43.43,0,0,1-.35-.17.44.44,0,0,1,.08-.62,18.58,18.58,0,0,1,4.9-2.45l.32-.11a.44.44,0,0,1,.37.8l-.39.15a17.56,17.56,0,0,0-4.66,2.31A.46.46,0,0,1,363.23,270.54Z"/><path class="cls-24" d="M362,272.85a.44.44,0,0,1-.44-.38.43.43,0,0,1,.37-.5,15,15,0,0,0,4.11-1.36c1.81-1,3-1.71,3-1.72a.45.45,0,0,1,.61.15.44.44,0,0,1-.15.61s-1.19.73-3,1.73a15.11,15.11,0,0,1-4.4,1.46Z"/><path class="cls-24" d="M365.51,274.4a.45.45,0,0,1-.44-.37.44.44,0,0,1,.36-.51,10.6,10.6,0,0,0,3.22-1.71.44.44,0,0,1,.62.08.45.45,0,0,1-.09.63,11.51,11.51,0,0,1-3.59,1.87Z"/><path class="cls-27" d="M433.5,400H342.62c-.18-.39-.35-.79-.53-1.18a.61.61,0,0,1,0-.06,215,215,0,0,1-11.57-30.95c-1.36-4.51,16.52-13.91,39.95-21,1.11-.34,2.22-.66,3.32-1,15.06-4.32,28.39-6.47,35.71-6,3.36.21,5.46,1,5.87,2.32,0,0,3.24,9.4,7.75,23.58v.05h0c.77,2.44,1.59,5,2.43,7.73.17.54.34,1.08.51,1.64.51,1.64,1,3.33,1.56,5.05.79,2.57,1.59,5.23,2.41,7.95q.69,2.31,1.38,4.66c.45,1.53.9,3.08,1.35,4.64C433,398.28,433.25,399.14,433.5,400Z"/><path class="cls-28" d="M354.51,249.32c.58,4.43,4,9,7.41,7.71s2.92-7,.41-10.68c-1.68-2.47-4-3.46-5.56-2.85S354.13,246.36,354.51,249.32Z"/><path class="cls-23" d="M382.34,251.82h4.32a8.19,8.19,0,0,1,8.19,8.19v6.41a0,0,0,0,1,0,0H382.34a0,0,0,0,1,0,0V251.82A0,0,0,0,1,382.34,251.82Z" transform="translate(-33.07 58.26) rotate(-8.22)"/><path class="cls-23" d="M391.49,253.66h4.32a8.19,8.19,0,0,1,8.19,8.19v6.41a0,0,0,0,1,0,0H391.49a0,0,0,0,1,0,0V253.66A0,0,0,0,1,391.49,253.66Z" transform="translate(-33.24 59.59) rotate(-8.23)"/><path class="cls-24" d="M387.86,264.25h-.05a.44.44,0,0,1-.39-.49c.69-5.6-5.33-10.9-7.19-12.39l-.14-.12a.44.44,0,0,1,0-.63.46.46,0,0,1,.61,0l.08.07c1.95,1.56,8.25,7.13,7.51,13.19A.45.45,0,0,1,387.86,264.25Z"/><path class="cls-24" d="M395.37,260.82h0a.45.45,0,0,1-.44-.45,8,8,0,0,0-3.48-6.3.45.45,0,0,1,.48-.75,8.79,8.79,0,0,1,3.89,7.06A.44.44,0,0,1,395.37,260.82Z"/><path class="cls-24" d="M403.72,262.19h0a.45.45,0,0,1-.44-.45c0-4-3.45-6.28-3.48-6.3a.44.44,0,0,1,.47-.75,8.81,8.81,0,0,1,3.9,7.06A.45.45,0,0,1,403.72,262.19Z"/><path class="cls-24" d="M372.83,324.59a57.52,57.52,0,0,0-.27,8.82l-.32-3.34a16.84,16.84,0,0,0-4.58-9.87c-.41-.43-.79-.86-1.14-1.3h0S373.22,322.31,372.83,324.59Z"/><path class="cls-24" d="M403.81,306.94a32.23,32.23,0,0,0,.6,14l1.83,6.84c-2.2-8.22-4-8.48-4.24-13.59-.2-5,2.49-11.58,2.73-12.42Z"/><path class="cls-29" d="M352.33,386.08A56.06,56.06,0,0,0,351,393.9a.09.09,0,0,0,0,.05c-.21,1.83-.39,3.87-.48,6.05h-.9c.06-1.3.14-2.54.25-3.73.07-.85.16-1.66.25-2.44,0,0,0-.05,0-.07a56.31,56.31,0,0,1,1.42-8,.44.44,0,0,1,.84.29Z"/><path class="cls-29" d="M432.63,397.45a.44.44,0,0,1-.42-.33c-.38-1.35-.8-2.71-1.3-4.16A88.47,88.47,0,0,0,413.74,364a69.18,69.18,0,0,0-12.14-11.35.44.44,0,0,1-.14-.61.46.46,0,0,1,.62-.13,69.51,69.51,0,0,1,12.33,11.5,89.56,89.56,0,0,1,17.34,29.24c.51,1.47.93,2.85,1.31,4.22a.43.43,0,0,1-.31.54Z"/><path class="cls-29" d="M342.09,398.82a5.27,5.27,0,0,0,1,1.18h-.42C342.44,399.61,342.27,399.21,342.09,398.82Z"/><path class="cls-29" d="M348,400a12.69,12.69,0,0,0,1.82-3.73c.39-1.18.63-2.18.69-2.39-.21,1.84-.4,3.9-.5,6.12Z"/><path class="cls-29" d="M431.4,392.79l-.07,0a88.54,88.54,0,0,0-17.26-29.09v0c.24.28,5.27,4.33,7.26,4.33s1.76-2.33,1.76-2.33v.05C425.59,373.58,428.47,382.84,431.4,392.79Z"/><path class="cls-1" d="M326.26,234.3c11.82-1.58,23.39-4.84,34.87-8a.33.33,0,0,0-.18-.64c-11.42,3.12-22.93,6.38-34.69,7.95-.42.06-.43.72,0,.67Z"/><path class="cls-1" d="M328.06,241.15A320.56,320.56,0,0,0,363.32,234a.33.33,0,0,0-.18-.64,320.56,320.56,0,0,1-35.26,7.17c-.42.06-.24.71.18.64Z"/><path class="cls-1" d="M329.77,247.29c11.87-2,23.67-4.42,35.4-7.09.39-.09.27-.62-.09-.65l-.5-.05c-.42,0-.42.63,0,.67l.5,0-.08-.65c-11.73,2.66-23.54,5.12-35.41,7.09-.42.07-.24.71.18.64Z"/><path class="cls-1" d="M331.3,254.56l18-2.71c.42-.07.24-.71-.18-.64l-18,2.71c-.42.07-.24.71.18.64Z"/><path class="cls-1" d="M332.87,262.27l7-1.28c.42-.08.24-.72-.18-.64l-7,1.28c-.42.08-.24.72.18.64Z"/></g><g id="_4" data-name="4"><path class="cls-15" d="M146,180.49l-.92,3.32q-.92,3.34-1.75,6.69l-7.61-1.65c.62-3.26,1.21-6.93,1.74-10.22a8.26,8.26,0,0,0,.14-2.42,5.6,5.6,0,0,0-1.65-3.36l-2.59-2.75c-1.51,4.18-3,8.37-4.3,12.67l-15.25-7.38c3.32-4.79,6.35-9.69,9.36-14.65.29-.48,1-1.75,1.34-2.22a7.63,7.63,0,0,1,12.64-1.58c1.7,2.41,5,7.26,6.79,9.71A15.66,15.66,0,0,1,146,180.49Z"/><path class="cls-15" d="M109.77,153h12a0,0,0,0,1,0,0v17.93a10.44,10.44,0,0,1-10.44,10.44h-1.55a0,0,0,0,1,0,0V153A0,0,0,0,1,109.77,153Z" transform="translate(169.81 363.19) rotate(-160.71)"/><path class="cls-16" d="M118.84,170.94a.4.4,0,0,1-.15,0,.45.45,0,0,1-.27-.57c5-13.62,8.61-15.76,8.76-15.84a.44.44,0,0,1,.44.77c-.07,0-3.51,2.25-8.36,15.38A.47.47,0,0,1,118.84,170.94Z"/><path class="cls-15" d="M178.72,160.11a9.85,9.85,0,0,1-7.13,2.53c-3.76,0-7.26-.18-10.73-.5-4-.37-8-.92-12.25-1.63,0,0-5.31,11.3-6.05,12.65h0c-.62,1.76-.83,3.79.4,5.39.82,1.06,2.17,1.16,3.64.79l-9.4,37.21c-1.81,1.56-2.94,3.61-4.1,7.06l-4,11.92-4.32,12.89-40.54-10,2.55-5.89,6.13-14.16a60.08,60.08,0,0,0,4.83-19.81l.88-12.82a153,153,0,0,1,3.37-21.7l.18-.74a7.49,7.49,0,0,1,9-5.63l3.7.86L111.76,172l13.14,3.9c4.17-6.65,8.5-13.26,12.9-19.77l.49-.74c1.7-2.76,3.51-5.67,7.85-5.1,2,.27,24.65,4.79,31.63,6.46C179.85,157.28,180,158.76,178.72,160.11Z"/><path class="cls-16" d="M108.36,169.22a.4.4,0,0,1-.15,0,.44.44,0,0,1-.27-.56c3.74-10.46,6.51-12.09,6.62-12.15a.44.44,0,0,1,.44.77c-.06,0-2.67,1.72-6.22,11.68A.45.45,0,0,1,108.36,169.22Z"/><path class="cls-16" d="M128.92,173.05a.42.42,0,0,1-.22-.05.44.44,0,0,1-.17-.6l9.37-17.22a.47.47,0,0,1,.61-.18.45.45,0,0,1,.17.61l-9.37,17.21A.45.45,0,0,1,128.92,173.05Z"/><path class="cls-16" d="M142.14,178.28a.45.45,0,0,1-.4-.25c-1.78-3.72,3.22-10.38,3.43-10.66a.45.45,0,0,1,.62-.09.44.44,0,0,1,.09.62c0,.07-4.89,6.51-3.34,9.75a.44.44,0,0,1-.2.59A.48.48,0,0,1,142.14,178.28Z"/><path class="cls-16" d="M148.48,161.62h-.09a.45.45,0,0,1-.35-.52,7.28,7.28,0,0,0-.86-4.62.45.45,0,0,1,.15-.61.46.46,0,0,1,.61.15,8.14,8.14,0,0,1,1,5.25A.43.43,0,0,1,148.48,161.62Z"/><path class="cls-16" d="M145.38,152.52a.44.44,0,0,1-.4-.25c-.61-1.21-2.44-1-2.46-1a.44.44,0,0,1-.09-.88c.1,0,2.46-.23,3.34,1.53a.44.44,0,0,1-.2.59A.45.45,0,0,1,145.38,152.52Z"/><path class="cls-16" d="M143.93,153.61a.45.45,0,0,1-.4-.24c-.6-1.21-2.44-1.05-2.46-1.05a.43.43,0,0,1-.48-.4.43.43,0,0,1,.39-.48c.1,0,2.46-.23,3.34,1.53a.44.44,0,0,1-.2.59A.34.34,0,0,1,143.93,153.61Z"/><path class="cls-30" d="M84.25,238.42l40.53,10,4.33-12.89c-4.38,2.23-32.94-5-40.34-7.66Z"/><path class="cls-31" d="M119.46,332.29c-1.9,11.77-4.7,25.28-8.67,40.65q-3.27,12.68-7.68,27.06H0V326.32c3-6,6.18-12.1,9.59-18,11-19.17,24-37.1,36.89-49.38q1.89-1.8,3.76-3.43s0,0,0,0a77.54,77.54,0,0,1,9.31-7,25.51,25.51,0,0,1,20.83-2.76,134.06,134.06,0,0,1,27.89,11.92,29,29,0,0,1,14.33,22.57C123.6,291.06,123.41,308,119.46,332.29Z"/><path class="cls-18" d="M176,157.75c-2.37-.53-4.19-1.45-4.05-2.06s2.18-.17,4.55.36,4,1.15,3.91,1.76S178.4,158.27,176,157.75Z"/><path class="cls-1" d="M186.54,161.45a14.9,14.9,0,0,1-6.76,3.82c.31-.29.35-1.38.07-2.63s-.74-2.17-1.15-2.33A14.5,14.5,0,0,1,186.54,161.45Z"/><path class="cls-32" d="M179.78,165.27l-.18,0-.08,0L104.19,184.7l0,0a1.84,1.84,0,0,1-.25.09c-1.16.23-2.55-1.81-3.09-4.54s0-5.13,1.14-5.36h0l76.35-14.48h0l.28,0c.41.16.89,1.12,1.15,2.33S180.09,165,179.78,165.27Z"/><path class="cls-15" d="M174,170.3c-11,15.36-14.12,25.51-19.43,34.12-1.19,2.19-4.14,5.82-11.31,8.8a21.59,21.59,0,0,0-6,3.34l9.4-37.21c3.49-.85,7.75-4.32,7.75-4.32a1.07,1.07,0,0,0-.07.2l13.23-10.42C172.23,160.28,179.05,163.21,174,170.3Z"/><path class="cls-18" d="M173.73,168.56c-2.2,2.19-5,2.94-6.26,1.68s-.52-4.07,1.67-6.26,5-2.94,6.26-1.68S175.92,166.37,173.73,168.56Z"/><path class="cls-16" d="M144.91,179.88a4,4,0,0,1-1-.11,3.08,3.08,0,0,1-2.17-1.74.45.45,0,0,1,.21-.59.44.44,0,0,1,.59.21,2.21,2.21,0,0,0,1.57,1.26c2.72.63,7.65-2.27,11-4.94a.44.44,0,0,1,.54.7C152.37,177.29,148,179.88,144.91,179.88Z"/><path class="cls-28" d="M102.44,183.08l-2.87.64a3.19,3.19,0,0,1-3.81-2.42h0a3.2,3.2,0,0,1,2.42-3.82l2.87-.64a3.19,3.19,0,0,1,3.81,2.43h0A3.19,3.19,0,0,1,102.44,183.08Z"/><path class="cls-31" d="M83.8,226.89l0,0-.09.12Z"/><path class="cls-31" d="M127.08,245l-.13.28a.79.79,0,0,0,.08-.3Z"/><path class="cls-31" d="M127,244.94a.79.79,0,0,1-.08.3l-10.52,25.21L73.16,252.39l10.5-25.16a.08.08,0,0,1,0,0,.69.69,0,0,1,.07-.15l.09-.12c1.69-2.22,11.94-.27,23.46,4.54S127.41,242.16,127,244.94Z"/><path class="cls-33" d="M122.23,277.84a.45.45,0,0,1-.44-.37c-1.37-8.69-6.2-16.39-25.29-25.72-21.74-10.6-34.37-4.21-34.49-4.15a.45.45,0,0,1-.6-.18.44.44,0,0,1,.18-.6c.53-.28,13.12-6.69,35.3,4.14,19.43,9.49,24.36,17.4,25.78,26.37a.45.45,0,0,1-.37.51Z"/><path class="cls-33" d="M109.94,374.68h-.11a.45.45,0,0,1-.33-.54c.15-.56.28-1.11.4-1.66a75.49,75.49,0,0,0-1-38.41,42.44,42.44,0,0,0-1.82-5,.45.45,0,0,1,.21-.59.44.44,0,0,1,.59.22,39.84,39.84,0,0,1,1.87,5.15,76.52,76.52,0,0,1,1,38.87c-.13.55-.26,1.12-.4,1.68A.46.46,0,0,1,109.94,374.68Z"/><path class="cls-33" d="M8.28,311a.43.43,0,0,1-.22-.06.44.44,0,0,1-.17-.6s.48-.85,1.38-2.23c4-6.06,18.65-26.18,41-30.62A46.31,46.31,0,0,1,65,277a.44.44,0,0,1-.11.88,45.45,45.45,0,0,0-14.5.53c-22,4.37-36.5,24.25-40.42,30.24-.88,1.35-1.34,2.17-1.35,2.17A.43.43,0,0,1,8.28,311Z"/><path class="cls-33" d="M50.34,277.93c-22,4.38-36.38,23.83-40.7,30.43a.35.35,0,0,0-.05-.08c11-19.17,24-37.1,36.89-49.38-2.76,3.05-5.62,7.93-3.61,14.11C43.72,275.61,46.58,277.12,50.34,277.93Z"/><path class="cls-33" d="M88.85,248.52h-.09a.45.45,0,0,1-.34-.53,78.78,78.78,0,0,1,4.52-13.06c3.38-7.68,7.13-6.64,7.29-6.59a.44.44,0,0,1,.29.56.43.43,0,0,1-.54.29c-.06,0-3.21-.76-6.23,6.1a77.63,77.63,0,0,0-4.46,12.89A.45.45,0,0,1,88.85,248.52Z"/><path class="cls-33" d="M110.31,259.34a.39.39,0,0,1-.18,0,.44.44,0,0,1-.22-.58l4.84-10.82a.44.44,0,0,1,.58-.23.45.45,0,0,1,.23.59l-4.85,10.82A.44.44,0,0,1,110.31,259.34Z"/><path class="cls-33" d="M119.46,332.29c-1.9,11.77-4.7,25.28-8.67,40.65l-.46-.37c4-17.33.54-34.5-1.63-41.67,1.61,3.09,4.48,6,7.06,5.52C117.28,336.16,118.51,334.44,119.46,332.29Z"/><path class="cls-1" d="M181.59,148.67l21.69-.69c.42,0,.43-.68,0-.66l-21.69.69c-.43,0-.43.68,0,.66Z"/><path class="cls-1" d="M182.24,153.9l7.79-.09a.33.33,0,0,0,0-.66l-7.79.08a.34.34,0,0,0,0,.67Z"/><path class="cls-1" d="M182.24,163l23.17-1c.43,0,.43-.68,0-.66l-23.17,1a.34.34,0,0,0,0,.67Z"/><path class="cls-1" d="M184.56,169q10.08-1,20.2-1.27a.33.33,0,0,0,0-.66q-10.11.27-20.2,1.27c-.42,0-.43.71,0,.66Z"/></g><g id="_10" data-name="10"><path class="cls-3" d="M91.17,100.54H25.66c1.87-1.88,5.41-3.49,9.57-4.16a26.68,26.68,0,0,1,3.46-.3,16.4,16.4,0,0,0,8.51-2.49,29,29,0,0,1,6.39-2.93c7.06-2.28,13.7-1.59,16.93,1.35a8.17,8.17,0,0,0,6.35,2.16c7.38-.75,14.15,2.6,14.3,6.37Z"/><path class="cls-3" d="M157.22,337.49H70.33c2.49-2.1,7.18-3.9,12.7-4.64a39.27,39.27,0,0,1,4.59-.34,25,25,0,0,0,11.28-2.78,41.58,41.58,0,0,1,8.48-3.28c9.37-2.55,18.16-1.78,22.45,1.51a12.2,12.2,0,0,0,8.42,2.41c9.79-.84,18.77,2.9,19,7.12Z"/><path class="cls-34" d="M554.89,381c-.28-3.84-7.35-6-15.55-4.84l-.31,0a14.79,14.79,0,0,1-10.32-2.44c-5.74-3.81-15.29-6.3-26.1-6.3-6.36,0-14.08,2.17-19.6,4a37.32,37.32,0,0,1-13.43,1.91,41.39,41.39,0,0,0-7.25.41c-7.4,1.07-13.56,3.9-16.49,7.17H554.89Z"/><path class="cls-3" d="M582.56,115.09c-.22-3-5.65-4.63-12-3.72l-.23,0a11.36,11.36,0,0,1-7.94-1.87c-4.42-2.93-11.76-4.85-20.07-4.85-4.9,0-10.84,1.67-15.08,3.12A28.72,28.72,0,0,1,517,109.27a31.62,31.62,0,0,0-5.57.32c-5.69.82-10.43,3-12.68,5.51h83.86Z"/><path class="cls-34" d="M442.75,23.46c-.15-2-3.91-3.2-8.27-2.57l-.17,0a7.89,7.89,0,0,1-5.49-1.29c-3.05-2-8.13-3.36-13.89-3.36a35.59,35.59,0,0,0-10.43,2.16,19.68,19.68,0,0,1-7.14,1,22.45,22.45,0,0,0-3.86.22c-3.94.57-7.21,2.08-8.77,3.82h58Z"/><path class="cls-34" d="M344.62,58.59H101.69c7-5.89,20.08-10.91,35.5-13A107.65,107.65,0,0,1,150,44.66a69.74,69.74,0,0,0,31.54-7.79,118.18,118.18,0,0,1,23.71-9.17c26.2-7.12,50.78-5,62.78,4.24a34,34,0,0,0,23.54,6.73c27.38-2.34,52.47,8.12,53,19.92Z"/></g></svg>